HIERARCHY
ROOT Hips
{
	OFFSET 0.000000 0.000000 0.000000
	CHANNELS 6 Xposition Yposition Zposition Zrotation Yrotation Xrotation 
	JOINT LowerBack
	{
		OFFSET 0.000000 0.000000 0.000000
		CHANNELS 3 Zrotation Yrotation Xrotation
		JOINT Spine
		{
			OFFSET 0.028270 2.035590 -0.193380
			CHANNELS 3 Zrotation Yrotation Xrotation
			JOINT Spine1
			{
				OFFSET 0.056720 2.048850 -0.042750
				CHANNELS 3 Zrotation Yrotation Xrotation
				JOINT Neck
				{
					OFFSET 0.000000 0.000000 0.000000
					CHANNELS 3 Zrotation Yrotation Xrotation
					JOINT Neck1
					{
						OFFSET -0.054170 1.746240 0.172020
						CHANNELS 3 Zrotation Yrotation Xrotation
						JOINT Head
						{
							OFFSET 0.104070 1.761360 -0.123970
							CHANNELS 3 Zrotation Yrotation Xrotation
							End Site
							{
								OFFSET 0.000000 0.000000 0.000000
							}
						}
					}
				}
				JOINT LeftShoulder
				{
					OFFSET 0.000000 0.000000 0.000000
					CHANNELS 3 Zrotation Yrotation Xrotation
					JOINT LeftArm
					{
						OFFSET 3.362410 1.200890 -0.311210
						CHANNELS 3 Zrotation Yrotation Xrotation
						JOINT LeftForeArm
						{
							OFFSET 4.983000 -0.000000 -0.000000
							CHANNELS 3 Zrotation Yrotation Xrotation
							JOINT LeftHand
							{
								OFFSET 3.483560 -0.000000 -0.000000
								CHANNELS 3 Zrotation Yrotation Xrotation
								JOINT LeftFingerBase
								{
									OFFSET 0.000000 0.000000 0.000000
									CHANNELS 3 Zrotation Yrotation Xrotation
									JOINT LeftHandIndex1
									{
										OFFSET 0.715260 -0.000000 -0.000000
										CHANNELS 3 Zrotation Yrotation Xrotation
										End Site
										{
											OFFSET 0.000000 0.000000 0.000000
										}
									}
								}
								JOINT LThumb
								{
									OFFSET 0.000000 0.000000 0.000000
									CHANNELS 3 Zrotation Yrotation Xrotation
									End Site
									{
										OFFSET 0.000000 0.000000 0.000000
									}
								}
							}
						}
					}
				}
				JOINT RightShoulder
				{
					OFFSET 0.000000 0.000000 0.000000
					CHANNELS 3 Zrotation Yrotation Xrotation
					JOINT RightArm
					{
						OFFSET -3.136600 1.374050 -0.404650
						CHANNELS 3 Zrotation Yrotation Xrotation
						JOINT RightForeArm
						{
							OFFSET -5.241900 -0.000000 -0.000000
							CHANNELS 3 Zrotation Yrotation Xrotation
							JOINT RightHand
							{
								OFFSET -3.444170 -0.000000 -0.000000
								CHANNELS 3 Zrotation Yrotation Xrotation
								JOINT RightFingerBase
								{
									OFFSET 0.000000 0.000000 0.000000
									CHANNELS 3 Zrotation Yrotation Xrotation
									JOINT RightHandIndex1
									{
										OFFSET -0.622530 -0.000000 -0.000000
										CHANNELS 3 Zrotation Yrotation Xrotation
										End Site
										{
											OFFSET 0.000000 0.000000 0.000000
										}
									}
								}
								JOINT RThumb
								{
									OFFSET 0.000000 0.000000 0.000000
									CHANNELS 3 Zrotation Yrotation Xrotation
									End Site
									{
										OFFSET 0.000000 0.000000 0.000000
									}
								}
							}
						}
					}
				}
			}
		}
	}
}
}
MOTION
Frames: 15
Frame Time: 0.008333
3.179617 17.192345 0.886718 -162.512428 -86.322160 164.797351 0.365221 1.333823 -1.207978 -0.385151 1.286744 -2.564709 -4.709249 1.250476 2.773371 8.012159 -10.730783 -9.633191 -1.441338 -0.087263 -0.514494 0.000000 0.000000 0.000000 -5.767553 25.613235 1.679995 -80.959607 30.330404 -5.236560 -4.158064 -10.324541 -0.029723 -5.364619 11.222436 -0.529437 -0.068426 -0.167441 -0.000000 0.000000 0.000000 0.000000 0.000000 0.000000 0.000000 7.509579 -5.357332 0.032944 51.151037 12.506954 6.589984 2.665112 36.991745 0.009312 2.080652 3.076825 0.055888 0.084820 -0.098894 0.000000 0.000000 0.000000 0.000000 0.000000 0.000000 0.000000 
2.941153 17.154515 0.872508 -167.324749 -86.278590 169.361704 -0.106805 1.247535 -1.043772 -0.483315 1.237905 -2.544425 -4.776383 1.203492 2.750437 8.251478 -10.804500 -9.674097 -1.473205 -0.088979 -0.526815 0.000000 0.000000 0.000000 -5.618960 25.498285 1.693943 -81.156593 30.141057 -4.708948 -4.158812 -10.672404 -0.030868 -5.762339 11.588939 -0.587955 -0.065666 -0.168698 -0.000000 0.000000 0.000000 0.000000 0.000000 0.000000 0.000000 7.903912 -5.425744 0.035905 51.516396 12.037001 6.404775 2.695107 36.864194 0.009451 2.098147 3.128956 0.057296 0.085623 -0.098160 0.000000 0.000000 0.000000 0.000000 0.000000 0.000000 0.000000 
2.704821 17.115419 0.855710 -173.035754 -86.244995 174.863913 -0.646685 1.136145 -0.892945 -0.593189 1.166854 -2.529058 -4.845385 1.133594 2.719809 8.494425 -10.855217 -9.712167 -1.511249 -0.091250 -0.538204 0.000000 0.000000 0.000000 -5.493876 25.353897 1.703895 -81.255440 29.845918 -4.047032 -4.156447 -11.037862 -0.031793 -6.152853 11.863704 -0.643371 -0.062957 -0.169102 -0.000000 0.000000 0.000000 0.000000 0.000000 0.000000 0.000000 8.311509 -5.475611 0.037012 51.991659 11.541242 6.150670 2.729624 36.672985 0.009616 2.086483 3.201498 0.058208 0.086871 -0.097716 0.000000 0.000000 0.000000 0.000000 0.000000 0.000000 0.000000 
2.470973 17.076304 0.836808 -179.208882 -86.236250 -179.131864 -1.220595 0.994315 -0.756130 -0.708999 1.065802 -2.517925 -4.915345 1.033190 2.682222 8.730824 -10.884454 -9.743801 -1.555698 -0.094167 -0.547738 0.000000 0.000000 0.000000 -5.393974 25.171642 1.709688 -81.254169 29.434548 -3.280230 -4.149009 -11.398642 -0.032379 -6.497545 12.028411 -0.689482 -0.060462 -0.168476 -0.000000 0.000000 0.000000 0.000000 0.000000 0.000000 0.000000 8.721922 -5.514198 0.033800 52.582649 11.014876 5.807026 2.767539 36.408178 0.009790 2.024305 3.300398 0.058022 0.088706 -0.097614 0.000000 0.000000 0.000000 0.000000 0.000000 0.000000 0.000000 
2.239802 17.038337 0.816344 174.601688 -86.257232 -173.073092 -1.784502 0.823049 -0.632018 -0.823304 0.932959 -2.509127 -4.985776 0.900850 2.642269 8.952540 -10.906753 -9.769554 -1.605746 -0.097669 -0.555632 0.000000 0.000000 0.000000 -5.315005 24.957765 1.710057 -81.153780 28.886916 -2.439639 -4.134584 -11.722455 -0.032512 -6.752617 12.069779 -0.719386 -0.058362 -0.166703 -0.000000 0.000000 0.000000 0.000000 0.000000 0.000000 0.000000 9.128061 -5.559751 0.024372 53.285941 10.472807 5.377107 2.807470 36.054854 0.009962 1.884201 3.436108 0.055938 0.091320 -0.097905 0.000000 0.000000 0.000000 0.000000 0.000000 0.000000 0.000000 
2.011199 17.002758 0.795199 168.866898 -86.296270 -167.431863 -2.291085 0.632723 -0.521078 -0.927868 0.775947 -2.502096 -5.057338 0.744428 2.601841 9.150544 -10.928388 -9.788080 -1.660798 -0.101738 -0.561489 0.000000 0.000000 0.000000 -5.258463 24.715285 1.702859 -80.958902 28.197964 -1.567323 -4.111609 -11.993248 -0.032108 -6.878415 11.984730 -0.727781 -0.056792 -0.163763 -0.000000 0.000000 0.000000 0.000000 0.000000 0.000000 0.000000 9.519743 -5.617368 0.008371 54.097741 9.914484 4.853294 2.848555 35.607673 0.010128 1.648659 3.616271 0.051060 0.094801 -0.098646 0.000000 0.000000 0.000000 0.000000 0.000000 0.000000 0.000000 
1.785110 16.970603 0.774023 163.812667 -86.336442 -162.440612 -2.718697 0.435590 -0.423554 -1.018538 0.606070 -2.496142 -5.129785 0.575313 2.564076 9.320026 -10.957559 -9.800005 -1.719853 -0.106272 -0.565467 0.000000 0.000000 0.000000 -5.217631 24.455046 1.686525 -80.680401 27.358464 -0.730763 -4.080617 -12.187761 -0.031140 -6.838562 11.776460 -0.710867 -0.055976 -0.159660 -0.000000 0.000000 0.000000 0.000000 0.000000 0.000000 0.000000 9.891720 -5.692610 -0.014115 55.008236 9.343566 4.239221 2.889579 35.064433 0.010285 1.306669 3.847571 0.042282 0.099137 -0.099858 0.000000 0.000000 0.000000 0.000000 0.000000 0.000000 0.000000 
1.561406 16.942886 0.754012 159.816134 -86.346935 -158.481674 -3.041848 0.250911 -0.342625 -1.090522 0.441331 -2.495237 -5.204596 0.411221 2.516697 9.446324 -10.966859 -9.793384 -1.783667 -0.111520 -0.564091 0.000000 0.000000 0.000000 -5.217564 24.144134 1.658736 -80.320671 26.427824 0.072567 -4.038909 -12.367984 -0.029596 -6.617574 11.456713 -0.668843 -0.055737 -0.154650 -0.000000 0.000000 0.000000 0.000000 0.000000 0.000000 0.000000 10.220134 -5.749848 -0.039624 56.024104 8.700117 3.467019 2.930835 34.452993 0.010445 0.875069 4.126400 0.029206 0.104070 -0.101649 0.000000 0.000000 0.000000 0.000000 0.000000 0.000000 0.000000 
1.339509 16.920155 0.735466 156.688684 -86.330594 -155.372253 -3.281028 0.079131 -0.278175 -1.146746 0.283714 -2.495552 -5.278026 0.254305 2.475326 9.538528 -10.995771 -9.782199 -1.849220 -0.116994 -0.561313 0.000000 0.000000 0.000000 -5.226731 23.831732 1.619943 -79.896661 25.357773 0.755687 -3.990789 -12.473003 -0.027543 -6.193608 11.033844 -0.602210 -0.056452 -0.148673 -0.000000 0.000000 0.000000 0.000000 0.000000 0.000000 0.000000 10.521149 -5.831923 -0.069173 57.110870 8.045223 2.616934 2.970507 33.754946 0.010604 0.341458 4.463359 0.010031 0.109599 -0.103824 0.000000 0.000000 0.000000 0.000000 0.000000 0.000000 0.000000 
1.119204 16.902819 0.719085 154.482975 -86.280158 -153.174010 -3.435649 -0.073828 -0.229962 -1.186753 0.139312 -2.497224 -5.348678 0.110643 2.439775 9.595931 -11.050313 -9.768165 -1.915254 -0.122563 -0.557557 0.000000 0.000000 0.000000 -5.248465 23.519566 1.569461 -79.417685 24.168431 1.296583 -3.937207 -12.528331 -0.025054 -5.569889 10.520304 -0.515465 -0.058067 -0.141881 -0.000000 0.000000 0.000000 0.000000 0.000000 0.000000 0.000000 10.792143 -5.943200 -0.100601 58.250614 7.379113 1.703335 3.008651 32.979414 0.010768 -0.279652 4.855391 -0.016344 0.115533 -0.106245 0.000000 0.000000 0.000000 0.000000 0.000000 0.000000 0.000000 
0.900027 16.891128 0.705334 153.167653 -86.196288 -151.861518 -3.506558 -0.205875 -0.197554 -1.210527 0.010366 -2.501370 -5.415848 -0.017634 2.405893 9.617126 -11.111129 -9.747588 -1.981948 -0.128290 -0.551802 0.000000 0.000000 0.000000 -5.282509 23.200213 1.509613 -78.896131 22.893301 1.662877 -3.880210 -12.568293 -0.022240 -4.763525 9.926966 -0.414814 -0.060515 -0.134401 -0.000000 0.000000 0.000000 0.000000 0.000000 0.000000 0.000000 11.027349 -6.062107 -0.132032 59.432750 6.667439 0.704210 3.045720 32.153163 0.010949 -0.949759 5.287597 -0.049722 0.121478 -0.108712 0.000000 0.000000 0.000000 0.000000 0.000000 0.000000 0.000000 
0.681440 16.884971 0.694484 152.664677 -86.082294 -151.361295 -3.497827 -0.318111 -0.178441 -1.218447 -0.103817 -2.505895 -5.477335 -0.131036 2.380158 9.609864 -11.201938 -9.729287 -2.046951 -0.133846 -0.546500 0.000000 0.000000 0.000000 -5.322594 22.893727 1.440330 -78.342880 21.534698 1.836553 -3.822397 -12.607036 -0.019229 -3.802919 9.262120 -0.307656 -0.063722 -0.126341 -0.000000 0.000000 0.000000 0.000000 0.000000 0.000000 0.000000 11.235939 -6.214263 -0.162067 60.626298 5.945562 -0.316815 3.082360 31.272275 0.011159 -1.653736 5.749566 -0.090303 0.127358 -0.110939 0.000000 0.000000 0.000000 0.000000 0.000000 0.000000 0.000000 
0.463159 16.884153 0.686670 152.904335 -85.942323 -151.608886 -3.409032 -0.411647 -0.170788 -1.210376 -0.204310 -2.511278 -5.532764 -0.230666 2.359377 9.576646 -11.306207 -9.711066 -2.110277 -0.139262 -0.541081 0.000000 0.000000 0.000000 -5.365983 22.596354 1.364350 -77.769455 20.126180 1.812560 -3.766004 -12.686695 -0.016154 -2.731477 8.534522 -0.201992 -0.067517 -0.117842 -0.000000 0.000000 0.000000 0.000000 0.000000 0.000000 0.000000 11.416861 -6.381583 -0.189151 61.818068 5.190575 -1.365915 3.119659 30.358287 0.011407 -2.349101 6.216128 -0.136389 0.132855 -0.112692 0.000000 0.000000 0.000000 0.000000 0.000000 0.000000 0.000000 
0.244746 16.888280 0.681801 153.789554 -85.782230 -152.508958 -3.241923 -0.489322 -0.172590 -1.186627 -0.293802 -2.517493 -5.581912 -0.319205 2.342036 9.522772 -11.413555 -9.692134 -2.171803 -0.144535 -0.535376 0.000000 0.000000 0.000000 -5.406649 22.307241 1.284316 -77.185839 18.697192 1.597354 -3.713284 -12.847111 -0.013150 -1.600313 7.754726 -0.105327 -0.071728 -0.109043 -0.000000 0.000000 0.000000 0.000000 0.000000 0.000000 0.000000 11.573742 -6.553278 -0.212068 62.992223 4.391286 -2.436942 3.158700 29.428244 0.011694 -2.997882 6.659596 -0.184680 0.137737 -0.113752 0.000000 0.000000 0.000000 0.000000 0.000000 0.000000 0.000000 
0.025955 16.896851 0.679535 155.209077 -85.609256 -153.949936 -3.003171 -0.555778 -0.180213 -1.148217 -0.376410 -2.521166 -5.623387 -0.400450 2.338076 9.463144 -11.568381 -9.686225 -2.228582 -0.149224 -0.533184 0.000000 0.000000 0.000000 -5.438436 22.051308 1.198564 -76.598037 17.242368 1.209325 -3.666570 -13.106608 -0.010330 -0.464287 6.933515 -0.024062 -0.076228 -0.100053 -0.000000 0.000000 0.000000 0.000000 0.000000 0.000000 0.000000 11.727374 -6.778133 -0.230410 64.111125 3.615923 -3.414373 3.200286 28.461252 0.012008 -3.600976 7.055772 -0.233676 0.142204 -0.113813 -0.000000 0.000000 0.000000 0.000000 0.000000 0.000000 0.000000 
